<?xml version="1.0" encoding="UTF-8"?>
<!DOCTYPE svg PUBLIC "-//W3C//DTD SVG 1.1//EN" "http://www.w3.org/Graphics/SVG/1.1/DTD/svg11.dtd">
<!-- Creator: CorelDRAW 2021.5 -->
<svg xmlns="http://www.w3.org/2000/svg" xml:space="preserve" width="118.54mm" height="44.866mm" version="1.1" style="shape-rendering:geometricPrecision; text-rendering:geometricPrecision; image-rendering:optimizeQuality; fill-rule:evenodd; clip-rule:evenodd"
viewBox="0 0 11901.75 4504.66"
 xmlns:xlink="http://www.w3.org/1999/xlink"
 xmlns:xodm="http://www.corel.com/coreldraw/odm/2003">
 <defs>
  <style type="text/css">
   <![CDATA[
    .fil2 {fill:#9D9E9E}
    .fil3 {fill:#898989}
    .fil1 {fill:#264796}
    .fil0 {fill:#9D9E9E;fill-rule:nonzero}
   ]]>
  </style>
 </defs>
 <g id="Layer_x0020_1">
  <metadata id="CorelCorpID_0Corel-Layer"/>
  <g id="_2003905818048">
   <g>
    <g>
     <polygon class="fil0" points="11901.75,1031.24 -0,1031.24 -0,1017.37 11901.75,1017.37 "/>
    </g>
    <g>
     <polygon class="fil0" points="11901.75,1319.86 -0,1319.86 -0,1305.99 11901.75,1305.99 "/>
    </g>
    <g>
     <polygon class="fil0" points="11901.75,1608.35 -0,1608.35 -0,1594.47 11901.75,1594.47 "/>
    </g>
    <g>
     <polygon class="fil0" points="11901.75,1896.85 -0,1896.85 -0,1882.97 11901.75,1882.97 "/>
    </g>
    <g>
     <polygon class="fil0" points="11901.75,2185.43 -0,2185.43 -0,2171.56 11901.75,2171.56 "/>
    </g>
    <g>
     <polygon class="fil0" points="11901.75,2474.45 -0,2474.45 -0,2460.58 11901.75,2460.58 "/>
    </g>
    <g>
     <polygon class="fil0" points="11901.75,2762.97 -0,2762.97 -0,2749.09 11901.75,2749.09 "/>
    </g>
    <g>
     <polygon class="fil0" points="11901.75,3051.55 -0,3051.55 -0,3037.67 11901.75,3037.67 "/>
    </g>
    <g>
     <polygon class="fil0" points="11901.75,3340.03 -0,3340.03 -0,3326.16 11901.75,3326.16 "/>
    </g>
    <g>
     <polygon class="fil0" points="11901.75,3628.73 -0,3628.73 -0,3614.85 11901.75,3614.85 "/>
    </g>
    <g>
     <polygon class="fil0" points="11901.75,3917.1 -0,3917.1 -0,3903.22 11901.75,3903.22 "/>
    </g>
    <g>
     <polygon class="fil0" points="11901.75,4205.73 -0,4205.73 -0,4191.86 11901.75,4191.86 "/>
    </g>
    <g>
     <polygon class="fil0" points="311.96,4504.66 311.96,772.07 325.84,772.07 325.84,4504.66 "/>
    </g>
    <g>
     <polygon class="fil0" points="580.97,4504.66 580.97,772.07 594.85,772.07 594.85,4504.66 "/>
    </g>
    <g>
     <polygon class="fil0" points="849.89,4504.66 849.89,772.07 863.76,772.07 863.76,4504.66 "/>
    </g>
    <g>
     <polygon class="fil0" points="1118.8,4504.66 1118.8,772.07 1132.67,772.07 1132.67,4504.66 "/>
    </g>
    <g>
     <polygon class="fil0" points="1387.93,4504.66 1387.93,772.07 1401.8,772.07 1401.8,4504.66 "/>
    </g>
    <g>
     <polygon class="fil0" points="1656.83,4504.66 1656.83,772.07 1670.71,772.07 1670.71,4504.66 "/>
    </g>
    <g>
     <polygon class="fil0" points="1925.76,4504.66 1925.76,772.07 1939.64,772.07 1939.64,4504.66 "/>
    </g>
    <g>
     <polygon class="fil0" points="2194.89,4504.66 2194.89,772.07 2208.77,772.07 2208.77,4504.66 "/>
    </g>
    <g>
     <polygon class="fil0" points="2463.8,4504.66 2463.8,772.07 2477.67,772.07 2477.67,4504.66 "/>
    </g>
    <g>
     <polygon class="fil0" points="2732.7,4504.66 2732.7,772.07 2746.57,772.07 2746.57,4504.66 "/>
    </g>
    <g>
     <polygon class="fil0" points="3001.86,4504.66 3001.86,772.07 3015.73,772.07 3015.73,4504.66 "/>
    </g>
    <g>
     <polygon class="fil0" points="3270.75,4504.66 3270.75,772.07 3284.63,772.07 3284.63,4504.66 "/>
    </g>
    <g>
     <polygon class="fil0" points="3539.68,4504.66 3539.68,772.07 3553.56,772.07 3553.56,4504.66 "/>
    </g>
    <g>
     <polygon class="fil0" points="3808.8,4504.66 3808.8,772.07 3822.68,772.07 3822.68,4504.66 "/>
    </g>
    <g>
     <polygon class="fil0" points="4077.5,4504.66 4077.5,772.07 4091.37,772.07 4091.37,4504.66 "/>
    </g>
    <g>
     <polygon class="fil0" points="4346.63,4504.66 4346.63,772.07 4360.5,772.07 4360.5,4504.66 "/>
    </g>
    <g>
     <polygon class="fil0" points="4615.79,4504.66 4615.79,772.07 4629.66,772.07 4629.66,4504.66 "/>
    </g>
    <g>
     <polygon class="fil0" points="4884.68,4504.66 4884.68,772.07 4898.55,772.07 4898.55,4504.66 "/>
    </g>
    <g>
     <polygon class="fil0" points="5153.6,4504.66 5153.6,772.07 5167.48,772.07 5167.48,4504.66 "/>
    </g>
    <g>
     <polygon class="fil0" points="5422.49,4504.66 5422.49,772.07 5436.37,772.07 5436.37,4504.66 "/>
    </g>
    <g>
     <polygon class="fil0" points="5691.65,4504.66 5691.65,772.07 5705.53,772.07 5705.53,4504.66 "/>
    </g>
    <g>
     <polygon class="fil0" points="5960.55,4504.66 5960.55,772.07 5974.43,772.07 5974.43,4504.66 "/>
    </g>
    <g>
     <polygon class="fil0" points="6229.47,4504.66 6229.47,772.07 6243.34,772.07 6243.34,4504.66 "/>
    </g>
    <g>
     <polygon class="fil0" points="6498.36,4504.66 6498.36,772.07 6512.23,772.07 6512.23,4504.66 "/>
    </g>
    <g>
     <polygon class="fil0" points="6767.4,4504.66 6767.4,772.07 6781.28,772.07 6781.28,4504.66 "/>
    </g>
    <g>
     <polygon class="fil0" points="7036.41,4504.66 7036.41,772.07 7050.29,772.07 7050.29,4504.66 "/>
    </g>
    <g>
     <polygon class="fil0" points="7305.53,4504.66 7305.53,772.07 7319.41,772.07 7319.41,4504.66 "/>
    </g>
    <g>
     <polygon class="fil0" points="7574.45,4504.66 7574.45,772.07 7588.33,772.07 7588.33,4504.66 "/>
    </g>
    <g>
     <polygon class="fil0" points="7843.58,4504.66 7843.58,772.07 7857.46,772.07 7857.46,4504.66 "/>
    </g>
    <g>
     <polygon class="fil0" points="8112.51,4504.66 8112.51,772.07 8126.38,772.07 8126.38,4504.66 "/>
    </g>
    <g>
     <polygon class="fil0" points="8381.51,4504.66 8381.51,772.07 8395.38,772.07 8395.38,4504.66 "/>
    </g>
    <g>
     <polygon class="fil0" points="8650.44,4504.66 8650.44,772.07 8664.32,772.07 8664.32,4504.66 "/>
    </g>
    <g>
     <polygon class="fil0" points="8919.44,4504.66 8919.44,772.07 8933.32,772.07 8933.32,4504.66 "/>
    </g>
    <g>
     <polygon class="fil0" points="9188.37,4504.66 9188.37,772.07 9202.25,772.07 9202.25,4504.66 "/>
    </g>
    <g>
     <polygon class="fil0" points="9457.38,4504.66 9457.38,772.07 9471.26,772.07 9471.26,4504.66 "/>
    </g>
    <g>
     <polygon class="fil0" points="9726.43,4504.66 9726.43,772.07 9740.3,772.07 9740.3,4504.66 "/>
    </g>
    <g>
     <polygon class="fil0" points="9995.43,4504.66 9995.43,772.07 10009.3,772.07 10009.3,4504.66 "/>
    </g>
    <g>
     <polygon class="fil0" points="10264.67,4504.66 10264.67,772.07 10278.54,772.07 10278.54,4504.66 "/>
    </g>
    <g>
     <polygon class="fil0" points="10533.36,4504.66 10533.36,772.07 10547.24,772.07 10547.24,4504.66 "/>
    </g>
    <g>
     <polygon class="fil0" points="10802.48,4504.66 10802.48,772.07 10816.36,772.07 10816.36,4504.66 "/>
    </g>
    <g>
     <polygon class="fil0" points="11071.42,4504.66 11071.42,772.07 11085.3,772.07 11085.3,4504.66 "/>
    </g>
    <g>
     <polygon class="fil0" points="11340.34,4504.66 11340.34,772.07 11354.22,772.07 11354.22,4504.66 "/>
    </g>
    <g>
     <polygon class="fil0" points="11609.47,4504.66 11609.47,772.07 11623.35,772.07 11623.35,4504.66 "/>
    </g>
    <path class="fil1" d="M304.29 2482.9c6.71,-62.65 15.46,-126.36 26.17,-190.49 53.43,-312.5 176.76,-601.96 369.4,-869.14 192.77,-266.74 499.43,-414.72 919.57,-443.93 67.07,0 143.33,7.99 229.11,24.13 85.66,16.11 173.94,44.45 264.91,85.12 139.21,67.28 271.61,175.01 397.53,323.86 125.9,148.85 218.16,360.44 277.12,634.74l-409.53 0c-58.85,-233.42 -158.69,-406.92 -299.2,-520.94 -140.63,-113.8 -291.09,-170.58 -451.84,-170.58 -10.69,0 -20.65,0 -30.18,0 -9.3,0 -18.05,1.52 -25.95,4.44 -211.59,17.41 -406.3,130.44 -584.34,339.01 -178.05,208.66 -272.38,508.5 -282.97,899.85 0,469.55 89.58,808.7 268.92,1017.23 179.34,208.56 376,314.26 590.18,317.27 2.82,0 4.77,0 6.28,0 1.18,0 3.25,0 5.96,0 208.77,0 401.62,-80.92 578.26,-242.95 176.66,-161.72 273.04,-376.75 289.26,-645.35l409.42 0c-5.41,37.95 -11.46,76.59 -17.95,115.99 -6.81,39.58 -15.58,79.5 -26.15,120.36 -69.46,259.71 -204.02,497.27 -403.73,713.17 -199.45,216.01 -450.41,323.73 -752.86,323.73 -457.78,14.64 -799.39,-145.03 -1023.95,-479.07 -224.98,-333.91 -337.49,-724.26 -337.49,-1170.5 2.7,-61.32 7.46,-123.2 14.07,-185.92z"/>
    <polygon class="fil2" points="4335.59,1565.61 3480.19,4217.93 3038.31,4217.93 4082.39,1014.38 4556.29,1014.38 5628.49,4217.93 5186.91,4217.93 "/>
    <polygon class="fil1" points="6012.27,1014.38 6598.98,1014.38 7452.26,3701.53 8305.26,1014.38 8896.11,1014.38 8896.11,4217.93 8467.5,4217.93 8467.5,1666.4 7647.7,4217.93 7256.46,4217.93 6436.82,1701.24 6436.82,4217.93 6012.27,4217.93 "/>
    <path class="fil1" d="M9717.53 3185.24c0,259.59 79.55,451.37 238.85,575.23 159.25,124.18 335.3,190.48 528.1,199.26 5.22,0 10.84,0 16.14,0 5.49,0 10.67,0 15.86,0 171.62,0 328.86,-42.95 471.9,-129.18 143.18,-85.96 225.72,-209.09 247.02,-369.82 2.63,-11.58 3.91,-22.5 3.91,-32.67 0,-10.17 0,-21.09 0,-32.67 0,-204.21 -78.32,-342.22 -234.75,-413.64 -156.81,-71.6 -335.55,-129.03 -536.07,-172.84 -24.23,-5.85 -46.96,-10.91 -68.29,-15.35 -21.41,-4.34 -42.93,-9.4 -64.33,-15.38 -238.21,-55.38 -454.56,-142.78 -648.73,-262.39 -193.95,-119.65 -278.96,-356.43 -254.96,-709.49 16.03,-224.56 111.22,-418.5 285.34,-581.94 173.97,-163.23 426.99,-245.01 758.98,-245.01 331.83,0 597.51,83.29 796.99,249.43 199.49,166.14 291.07,404.02 275.2,713.05l-377.67 0c0,-5.6 0,-10.05 0,-12.97 0,-2.93 0,-7.14 0,-13.18 0,-2.82 0,-6.51 0,-10.83 0,-4.43 0,-7.79 0,-11.01 0,-180.88 -70.06,-319.44 -210.66,-415.6 -140.63,-96.28 -295.1,-147.33 -463.96,-153.27 -5.18,0 -9.94,0 -13.97,0 -3.99,0 -7.44,0 -10.06,0 -163.1,0 -312.6,44.46 -447.83,133.58 -135.21,88.92 -206.84,228.24 -214.84,417.74 21.56,154.69 102.58,263.51 242.98,326.26 140.6,62.84 303.31,116.16 488.05,159.86 32.01,8.88 65.53,17.54 100.17,26.39 34.81,8.78 69.88,17.54 104.72,26.31 216.79,55.38 418.08,139.2 604.21,251.48 186.09,112.38 295.09,308.74 327.34,588.78 16.02,346.9 -99.07,610.84 -345.27,791.8 -246.44,180.83 -519.54,274.2 -819.33,280.16 -2.78,0 -4.72,0 -6.03,0 -1.29,0 -3.44,0 -5.92,0 -294.56,0 -564.22,-92.71 -809.22,-277.89 -244.93,-185.2 -363.46,-473.23 -355.46,-864.15l381.59 0z"/>
    <path class="fil1" d="M5604.01 1978.15c-17.49,-12.54 -39.17,-8.87 -60.03,-5.84l-402.91 49.34c-30.74,13.76 -44.37,49.75 -30.63,80.57 13.87,30.4 49.87,44.37 80.91,33.45l188.95 -18.4 -260.45 296.48 -481.26 31.49 -17.61 30.5 -167.89 290 -552.09 0 -18.19 24.87 -167.44 228.03 -558.16 0 -17.73 27.03 -204.89 326.14c-18.61,27.93 -11.03,65.66 16.87,84.19 27.92,18.59 65.77,11.23 84.38,-16.8l186.6 -298.87 554.81 0 18.17 -24.88 167.21 -228.02 560.77 0 17.42 -30.51 168 -289.88 468.15 -37.87 14.7 -14.9 301.72 -327.77 -6.15 246.95c-2.82,33.53 22.26,62.75 55.47,65.67 33.41,2.6 62.94,-22.26 65.65,-55.79l21.41 -410.43c1.52,-21.64 -7.96,-42.4 -25.74,-54.74z"/>
   </g>
   <g>
    <path class="fil3" d="M5751.45 295.57c6.16,19.93 15.17,37.4 26.89,52.16 11.97,14.64 25.2,25.81 40.37,33.18 14.94,7.71 31.21,11.39 49.03,11.39 18.32,0 34.89,-3.67 50.3,-11.39 15.17,-7.38 28.64,-18.78 39.94,-33.95 11.69,-14.97 20.68,-32.98 26.55,-54.02 5.74,-21.04 8.9,-45.1 8.9,-72.45 0,-17.46 -1.4,-33.72 -4.12,-48.8 -2.72,-14.98 -6.61,-29.09 -11.73,-42.31 -4.43,-12.59 -10.52,-23.87 -17.89,-34.15 -7.57,-9.88 -16.07,-18.78 -25.58,-25.72 -10.09,-7.15 -20.6,-12.47 -31.56,-15.61 -10.94,-3.47 -22.23,-5.2 -34.08,-5.2 -16.81,0 -32.64,3.23 -47.82,10.08 -14.98,6.82 -28.64,17.02 -40.78,30.91 -12.35,13.43 -21.78,31.67 -28.07,54.77 -6.44,22.88 -9.58,50.21 -9.58,81.88 0,25.8 3.05,48.83 9.24,69.22zm-46 -164.23c8.15,-27.76 20.41,-51.4 36.77,-71.35 15.87,-19.76 34.61,-34.94 55.65,-44.91 21.15,-9.99 44.68,-15.08 70.6,-15.08 16.81,0 32.88,2.28 48.28,7.16 15.06,4.67 29.27,11.6 42.5,20.72 13.66,9.53 25.69,20.82 36.22,33.84 10.4,13.24 19.33,27.98 26.47,44.57 6.96,17.04 12.16,35.04 15.84,54.13 3.57,18.98 5.39,39.27 5.39,60.73 0,21.25 -1.83,41.65 -5.39,60.84 -3.68,19.2 -9.35,37.41 -17.16,54.46 -7.21,17.01 -16.27,31.98 -26.97,44.78 -10.56,13.01 -22.79,23.87 -36.38,32.97 -14.16,8.8 -28.6,14.97 -43.35,19.09 -14.75,3.91 -30.15,5.96 -46.19,5.96 -16.74,0 -32.99,-2.37 -48.41,-6.82 -15.6,-4.57 -30.23,-11.5 -44.32,-21.14 -13.35,-9.87 -24.96,-21.39 -35.05,-34.39 -10.4,-13.13 -19.1,-27.99 -26.36,-44.69 -6.83,-16.93 -12.03,-34.29 -15.29,-52.06 -3.45,-17.57 -5.2,-35.79 -5.2,-54.23 0,-35.36 4.12,-66.82 12.34,-94.59z"/>
    <path class="fil3" d="M6272.49 387.63c-9.97,16.93 -22.13,29.6 -36.22,38.28 -14.09,8.47 -29.97,12.7 -47.74,12.7 -7.69,0 -15.41,-0.76 -22.59,-2.28 -7.1,-1.74 -14.29,-3.91 -21.19,-6.73 -6.75,-3.47 -12.61,-7.49 -17.61,-11.95 -5.05,-4.66 -9.1,-9.53 -12.12,-14.74 -3.25,-4.99 -6.17,-10.84 -8.69,-17.56 -2.59,-6.51 -4.47,-13.47 -5.86,-21.05 -0.88,-5.2 -1.52,-11.94 -1.94,-19.73 -0.58,-8.25 -0.73,-18.01 -0.73,-29.09l0 -190.77 44.99 0 0 171.26c0,13.45 0.23,24.74 0.61,34.06 0.7,9.12 1.36,15.84 2.22,20.63 1.29,6.7 3.68,12.78 6.94,18.43 3.03,5.62 6.91,10.4 11.5,14.31 4.43,3.91 9.66,6.93 15.25,8.89 5.78,1.95 11.84,2.94 18.12,2.94 6.77,0 13.47,-0.99 19.88,-3.15 6.41,-2.38 12.45,-5.42 18.32,-9.32 6.37,-3.91 11.72,-8.67 15.82,-14.34 3.89,-5.42 7.27,-11.6 9.44,-18.43 2.25,-6.72 4.24,-15.07 5.28,-25.15 1.56,-10.1 2.21,-21.7 2.21,-34.72l0 -165.4 45.11 0 0 307.92 -40.99 0 0 -45.01z"/>
    <path class="fil3" d="M6382.99 124.72l41.14 0 0 46.96c4.74,-10.94 9.75,-20.15 14.09,-27.21 4.55,-7.28 9.21,-12.58 13.78,-16.15 4.44,-3.59 9.21,-6.3 13.98,-8.02 4.78,-1.63 9.98,-2.73 15.37,-2.73 7.19,0 14.87,1.63 22.48,4.46 7.72,3.02 15.52,7.37 23.32,12.78l-15.09 48.28c-5.94,-3.69 -11.58,-6.41 -17.02,-8.36 -5.42,-1.95 -11.05,-3.02 -16.49,-3.02 -4.43,-0.02 -9.01,0.86 -13.54,2.81 -4.7,1.63 -8.78,4.12 -12.27,7.37 -4.12,3.47 -7.68,7.61 -10.59,12.48 -3.06,4.78 -5.13,10.19 -6.53,16.05 -2.86,9.43 -4.66,19.2 -5.9,29.39 -1.04,10.2 -1.7,20.82 -1.7,31.89l0 160.96 -45.03 0 0 -307.92z"/>
    <path class="fil3" d="M6699.07 7.69l72.99 0 86.76 301.31c3.45,13.9 6.95,26.13 10.09,36.66 3.14,10.42 5.74,19.1 7.57,25.81 2.29,-8.02 4.89,-17.57 7.8,-28.86 3.14,-11.28 6.87,-24.29 11.41,-38.93l87.19 -296 65.62 0 0 424.95 -46.42 0 0 -356.18 -106.4 356.18 -43.58 0 -106.74 -362.03 0 362.03 -46.3 0 0 -424.95z"/>
    <path class="fil3" d="M7120.86 124.72l44.99 0 0 307.92 -44.99 0 0 -307.92zm0 -117.03l44.99 0 0 60.11 -44.99 0 0 -60.11z"/>
    <path class="fil3" d="M7260.01 332.85c1.4,10.2 3.92,19.32 7.45,27.34 3.72,7.92 8.27,14.65 13.82,20.17 5.75,5.53 12.88,9.65 20.68,12.48 7.81,2.91 16.97,4.23 27.14,4.23 10.4,0 19.53,-1.32 27.21,-3.69 7.73,-2.28 13.9,-6.06 18.36,-11.29 4.97,-4.54 8.89,-9.96 11.61,-15.61 2.79,-5.86 4.07,-12.14 4.07,-18.76 0,-5.54 -1.16,-10.52 -3.33,-15.18 -2.18,-4.46 -5.74,-8.57 -10.16,-12.27 -3.27,-2.28 -8.7,-4.99 -16.07,-8.01 -7.73,-2.94 -17.39,-6.08 -29.73,-9.76 -16.93,-5.21 -31.02,-9.77 -42.32,-13.9 -11.48,-4.12 -20.25,-8.02 -26.66,-11.04 -5.97,-3.69 -11.26,-7.81 -16.39,-12.82 -5.08,-4.86 -9,-10.52 -12.27,-16.9 -3.13,-6.42 -5.62,-12.82 -7.57,-19.54 -1.86,-6.83 -2.7,-13.99 -2.7,-21.48 0,-6.72 0.73,-13.43 2.04,-19.96 1.34,-6.51 3.47,-12.79 6.22,-18.65 2.68,-5.53 5.93,-10.83 9.86,-15.61 3.88,-5.21 8.02,-9.55 12.69,-13.55 3.53,-3.25 7.8,-5.96 12.58,-8.35 4.88,-2.39 10.19,-4.55 16.02,-6.5 6.41,-1.96 12.58,-3.58 18.87,-4.78 5.98,-1.08 12.69,-1.86 19.99,-1.86 10.48,0 20.37,1.1 29.38,2.73 9.09,1.73 17.58,4.43 25.27,8.02 7.69,3.57 14.63,7.8 20.49,12.14 5.86,4.66 10.75,9.87 14.32,15.84 3.57,5.85 6.73,12.8 9.55,20.81 2.8,7.81 4.55,17.04 5.4,27.33l-43.58 6.53c-0.43,-7.93 -2.14,-14.98 -5.21,-20.95 -2.82,-6.38 -6.83,-11.6 -11.8,-15.93 -4.65,-4.24 -10.33,-7.7 -17.08,-9.96 -6.9,-2.4 -14.82,-3.7 -23.95,-3.7 -10.09,-0.01 -18.75,0.96 -26.32,3.03 -7.42,1.95 -13.23,5.21 -17.39,9.33 -4.54,4.13 -8.04,8.24 -10.17,12.58 -2.29,4.34 -3.49,9.33 -3.49,14.97 0,3.46 0.43,6.74 1.44,9.76 0.93,3.03 2.13,5.86 4.08,8.68 1.74,2.71 4.05,5.19 6.87,7.58 2.56,2.5 6.06,4.56 10.17,6.73 2.37,0.66 6.76,2.18 13.27,4.34 6.69,2.18 15.6,4.98 26.98,8.68 15.95,5.21 29.43,9.76 40.33,13.66 10.75,3.91 19.64,7.49 25.93,10.74 6.28,2.71 11.95,6.62 17.03,11.16 4.86,4.78 9.24,10.19 12.89,16.04 3.68,5.97 6.33,12.59 7.83,19.96 1.72,7.17 2.37,15.5 2.37,24.63 0.01,8.79 -0.84,17.24 -3.02,25.37 -2.06,8.13 -5.2,16.17 -9.78,23.98 -4.54,7.49 -9.97,14.31 -16.03,20.16 -6.16,6.08 -13.69,11.18 -22.24,15.41 -8.1,3.67 -16.92,6.41 -25.88,8.35 -9.17,2.05 -19.03,3.04 -29.43,3.04 -17.23,0 -32.64,-1.87 -45.68,-5.77 -13.23,-3.67 -24.38,-9.76 -33.61,-17.99 -8.45,-8.34 -15.79,-18.65 -21.69,-30.89 -5.94,-12.26 -10.18,-26.6 -13.01,-42.86l44.37 -8.24z"/>
    <path class="fil3" d="M7516.11 332.85c1.29,10.2 3.64,19.32 7.34,27.34 3.72,7.92 8.26,14.65 13.82,20.17 5.71,5.53 12.68,9.65 20.68,12.48 8.04,2.91 16.92,4.23 27.01,4.23 10.52,0 19.41,-1.32 27.21,-3.69 7.58,-2.28 13.9,-6.06 18.44,-11.29 5.01,-4.54 8.89,-9.96 11.61,-15.61 2.84,-5.86 4.12,-12.14 4.12,-18.76 0,-5.54 -1.16,-10.52 -3.34,-15.18 -2.36,-4.46 -5.62,-8.57 -10.4,-12.27 -3.05,-2.28 -8.33,-4.99 -15.98,-8.01 -7.45,-2.94 -17.43,-6.08 -29.7,-9.76 -16.8,-5.21 -30.89,-9.77 -42.19,-13.9 -11.49,-4.12 -20.38,-8.02 -26.71,-11.04 -5.82,-3.69 -11.49,-7.81 -16.34,-12.82 -5.08,-4.86 -9.25,-10.52 -12.5,-16.9 -3.02,-6.42 -5.51,-12.82 -7.34,-19.54 -1.86,-6.83 -2.83,-13.99 -2.83,-21.48 0,-6.72 0.74,-13.43 2.14,-19.96 1.33,-6.51 3.48,-12.79 6.09,-18.65 2.83,-5.53 6.08,-10.83 9.97,-15.61 3.93,-5.21 8.03,-9.55 12.7,-13.55 3.57,-3.25 7.72,-5.96 12.49,-8.35 4.78,-2.39 10.17,-4.55 16.03,-6.5 6.41,-1.96 12.58,-3.58 18.86,-4.78 6.05,-1.08 12.81,-1.86 20.07,-1.86 10.52,0 20.27,1.1 29.42,2.73 9.1,1.73 17.55,4.43 25.16,8.02 7.79,3.57 14.51,7.8 20.57,12.14 5.89,4.66 10.67,9.87 14.33,15.84 3.56,5.85 6.71,12.8 9.54,20.81 2.6,7.81 4.59,17.04 5.43,27.33l-43.71 6.53c-0.35,-7.93 -2.1,-14.98 -5,-20.95 -3.03,-6.38 -7.04,-11.6 -11.92,-15.93 -4.66,-4.24 -10.41,-7.7 -17.28,-9.96 -6.71,-2.4 -14.74,-3.7 -23.83,-3.7 -9.97,-0.01 -18.75,0.96 -26.28,3.03 -7.34,1.95 -13.23,5.21 -17.32,9.33 -4.65,4.13 -8.03,8.24 -10.2,12.58 -2.36,4.34 -3.49,9.33 -3.49,14.97 0,3.46 0.46,6.74 1.32,9.76 0.97,3.03 2.37,5.86 4.12,8.68 1.86,2.71 4.15,5.19 6.76,7.58 2.79,2.5 6.29,4.56 10.36,6.73 2.22,0.66 6.75,2.18 13.24,4.34 6.63,2.18 15.63,4.98 27.04,8.68 15.84,5.21 29.35,9.76 40.21,13.66 10.95,3.91 19.54,7.49 25.93,10.74 6.41,2.71 12.03,6.62 17.05,11.16 4.96,4.78 9.39,10.19 12.99,16.04 3.57,5.97 6.3,12.59 8.04,19.96 1.28,7.17 2.17,15.5 2.17,24.63 0,8.79 -0.89,17.24 -3.02,25.37 -2.17,8.13 -5.32,16.17 -10.02,23.98 -4.42,7.49 -9.75,14.31 -15.79,20.16 -6.29,6.08 -13.7,11.18 -22.28,15.41 -8.31,3.67 -16.77,6.41 -25.93,8.35 -9.08,2.05 -18.94,3.04 -29.35,3.04 -17.26,0 -32.55,-1.87 -45.79,-5.77 -13.11,-3.67 -24.18,-9.76 -33.5,-17.99 -8.56,-8.34 -15.87,-18.65 -21.7,-30.89 -5.92,-12.26 -10.31,-26.6 -13.11,-42.86l44.6 -8.24z"/>
    <path class="fil3" d="M7746 124.72l44.91 0 0 307.92 -44.91 0 0 -307.92zm0 -117.03l44.91 0 0 60.11 -44.91 0 0 -60.11z"/>
    <path class="fil3" d="M7894.08 330.48c3.68,14.53 8.97,26.89 16.38,36.88 7.81,9.88 16.27,17.25 25.58,22.24 9.32,4.88 19.76,7.48 31.01,7.48 11.06,0 21.15,-2.6 30.35,-7.48 9.36,-4.99 17.69,-12.36 25.03,-22.24 7.77,-9.99 13.28,-22.35 17.08,-37.32 3.46,-15.29 5.43,-32.74 5.43,-52.91 0,-19.1 -1.98,-35.8 -5.43,-50.11 -3.8,-14.33 -9.31,-26.48 -17.08,-36.24 -7.33,-9.97 -15.67,-17.24 -25.03,-22.35 -9.2,-4.75 -19.3,-7.37 -30.35,-7.37 -11.26,0 -21.7,2.39 -31.01,7.16 -9.32,4.56 -17.77,11.95 -25.58,22.03 -7.41,9.87 -12.69,22.12 -16.38,36.77 -3.72,14.63 -5.43,31.88 -5.43,51.63 0,19.84 1.71,37.09 5.43,51.84zm-41.54 -126.46c6.68,-21.05 16.89,-38.39 30.59,-51.86 11.38,-11.5 24.18,-20.15 38.15,-25.91 14.09,-5.63 29.38,-8.68 45.76,-8.68 18.2,0 34.7,3.57 49.44,10.42 14.99,7.05 28.22,17.46 40.02,31.35 11.85,13.88 20.54,30.36 26.13,49.46 5.78,19.31 8.68,41.22 8.68,65.71 0,19.86 -1.52,37.53 -4.11,52.93 -2.83,15.62 -6.61,28.96 -11.69,40.47 -4.78,11.6 -11.06,21.57 -18.67,30.24 -7.48,8.9 -16.42,16.29 -26.28,22.79 -9.55,6.28 -19.72,10.74 -30.46,13.45 -10.52,2.8 -21.67,4.23 -33.07,4.23 -18.67,0 -35.44,-3.26 -50.43,-9.68 -15.09,-6.71 -28.32,-16.9 -39.74,-30.79 -11.33,-13.88 -19.91,-30.58 -25.88,-50.42 -5.86,-19.85 -8.9,-42.83 -8.9,-69.09 0,-28.43 3.49,-53.25 10.44,-74.62z"/>
    <path class="fil3" d="M8143.19 124.72l40.79 0 0 44.05c10.06,-17.03 22.13,-29.83 36.42,-38.39 14.09,-8.35 30.15,-12.81 48.27,-12.81 7.92,0 15.41,1.1 22.86,2.73 7.62,1.73 14.79,4.32 21.52,7.37 6.51,3.24 12.1,6.93 17.34,11.39 5.2,4.44 9.55,9.33 12.77,14.87 3.49,5.19 6.3,10.94 8.5,17.57 2.06,6.49 3.68,13.43 5.08,21.14 0.97,5.09 1.63,11.92 2.1,20.48 0.39,8.47 0.62,18.67 0.62,30.48l0 189.05 -45.14 0 0 -187.19c0,-10.75 -0.43,-19.96 -1.28,-27.88 -0.89,-7.92 -2.18,-14.53 -4.17,-19.64 -1.7,-5.53 -4.19,-10.39 -7.14,-14.53 -2.9,-4.23 -6.71,-7.92 -11.02,-11.07 -4.77,-3.23 -9.55,-5.63 -14.79,-7.26 -5.2,-1.4 -10.86,-2.27 -16.69,-2.27 -9.66,0 -18.62,1.84 -27.13,5.41 -8.34,3.46 -15.8,8.9 -22.74,16.05 -6.87,7.17 -12.08,17.25 -15.6,30.59 -3.73,13.23 -5.56,29.71 -5.56,49.67l0 168.11 -45.02 0 0 -307.92z"/>
    <polygon class="fil3" points="8440.82,373.21 8491.86,373.21 8491.86,432.64 8440.82,432.64 "/>
    <polygon class="fil3" points="8547.98,373.21 8599.03,373.21 8599.03,432.64 8547.98,432.64 "/>
    <polygon class="fil3" points="8655.11,373.21 8706.31,373.21 8706.31,432.64 8655.11,432.64 "/>
    <path class="fil3" d="M8985.04 252.59l-141.16 -244.9 59.19 0 72.42 127.78c6.3,12.36 12.81,24.51 19.1,36.54 6.3,12.05 12.5,24.09 18.44,35.91 5.01,-11.3 10.82,-23.32 17.69,-35.91 6.84,-12.35 14.18,-25.59 21.93,-39.57l70.92 -124.75 56.71 0 -146.77 244.9 0 180.05 -48.47 0 0 -180.05z"/>
    <path class="fil3" d="M9205.54 330.48c3.61,14.53 9.01,26.89 16.39,36.88 7.61,9.88 16.26,17.25 25.61,22.24 9.32,4.88 19.72,7.48 31.01,7.48 10.94,0 21.03,-2.6 30.35,-7.48 9.33,-4.99 17.59,-12.36 24.84,-22.24 7.81,-9.99 13.55,-22.35 17.04,-37.32 3.69,-15.29 5.63,-32.74 5.63,-52.91 0,-19.1 -1.95,-35.8 -5.63,-50.11 -3.48,-14.33 -9.23,-26.48 -17.04,-36.24 -7.25,-9.97 -15.53,-17.24 -24.84,-22.35 -9.32,-4.75 -19.41,-7.37 -30.35,-7.37 -11.29,0 -21.7,2.39 -31.01,7.16 -9.36,4.56 -18.01,11.95 -25.61,22.03 -7.38,9.87 -12.78,22.12 -16.39,36.77 -3.56,14.63 -5.54,31.88 -5.54,51.63 0,19.84 1.98,37.09 5.54,51.84zm-41.72 -126.46c6.91,-21.05 17.12,-38.39 30.77,-51.86 11.42,-11.5 24.07,-20.15 38.15,-25.91 14.1,-5.63 29.31,-8.68 45.8,-8.68 18.24,0 34.58,3.57 49.45,10.42 14.75,7.05 28.09,17.46 40.02,31.35 11.8,13.88 20.49,30.36 26.12,49.46 5.89,19.31 8.56,41.22 8.56,65.71 0.02,19.86 -1.4,37.53 -4.19,52.93 -2.75,15.62 -6.29,28.96 -11.52,40.47 -4.98,11.6 -11.26,21.57 -18.8,30.24 -7.45,8.9 -16.27,16.29 -26.08,22.79 -9.7,6.28 -19.75,10.74 -30.42,13.45 -10.83,2.8 -21.9,4.23 -33.15,4.23 -18.67,0 -35.59,-3.26 -50.58,-9.68 -14.94,-6.71 -28.17,-16.9 -39.54,-30.79 -11.38,-13.88 -20.07,-30.58 -25.93,-50.42 -5.97,-19.85 -8.89,-42.83 -8.89,-69.09 0,-28.43 3.45,-53.25 10.21,-74.62z"/>
    <path class="fil3" d="M9628.51 387.63c-9.93,16.93 -21.89,29.6 -36.06,38.28 -14.13,8.47 -30.08,12.7 -47.74,12.7 -7.8,0 -15.17,-0.76 -22.58,-2.28 -7.22,-1.74 -14.29,-3.91 -21.04,-6.73 -6.91,-3.47 -12.88,-7.49 -17.78,-11.95 -5.08,-4.66 -9.08,-9.53 -12.34,-14.74 -3.25,-4.99 -6.05,-10.84 -8.46,-17.56 -2.47,-6.51 -4.47,-13.47 -5.86,-21.05 -0.88,-5.2 -1.51,-11.94 -2.06,-19.73 -0.54,-8.25 -0.66,-18.01 -0.66,-29.09l0 -190.77 45.04 0 0 171.26c0,13.45 0.18,24.74 0.73,34.06 0.46,9.12 1.09,15.84 2.09,20.63 1.3,6.7 3.57,12.78 6.73,18.43 3.14,5.62 7.14,10.4 11.68,14.31 4.59,3.91 9.55,6.93 15.21,8.89 5.71,1.95 11.81,2.94 18.21,2.94 6.76,0 13.34,-0.99 19.75,-3.15 6.42,-2.38 12.58,-5.42 18.4,-9.32 6.29,-3.91 11.52,-8.67 15.63,-14.34 4.13,-5.42 7.39,-11.6 9.75,-18.43 2.18,-6.72 4.15,-15.07 5.21,-25.15 1.51,-10.1 2.21,-21.7 2.21,-34.72l0 -165.4 45.1 0 0 307.92 -41.14 0 0 -45.01z"/>
    <path class="fil3" d="M9739.28 124.72l41.03 0 0 46.96c4.85,-10.94 9.5,-20.15 14.28,-27.21 4.35,-7.28 8.89,-12.58 13.42,-16.15 4.59,-3.59 9.37,-6.3 14.25,-8.02 4.67,-1.63 9.67,-2.73 15.26,-2.73 7.18,0 14.74,1.63 22.36,4.46 7.91,3.02 15.63,7.37 23.32,12.78l-15.1 48.28c-5.82,-3.69 -11.5,-6.41 -17.12,-8.36 -5.43,-1.95 -10.63,-3.02 -16.26,-3.02 -4.55,-0.02 -9.09,0.86 -13.71,2.81 -4.53,1.63 -8.53,4.12 -12.34,7.37 -4.11,3.47 -7.57,7.61 -10.4,12.48 -3.07,4.78 -5.2,10.19 -6.53,16.05 -2.82,9.43 -4.77,19.2 -5.85,29.39 -1.04,10.2 -1.64,20.82 -1.64,31.89l0.01 160.96 -44.99 0 0 -307.92z"/>
    <path class="fil3" d="M10228.54 216.27l154.98 -0.53 0 158.12c-11.8,11.06 -23.88,20.82 -36.22,29.07 -12.34,8.36 -24.88,15.41 -37.65,20.82 -3.14,1.3 -6.29,2.39 -9.43,3.68 -3.26,1.09 -6.29,2.06 -9.56,2.82 -10.09,2.82 -19.94,4.98 -29.38,6.63 -9.55,1.62 -19.64,2.37 -30.04,2.37 -17.77,0 -34.74,-2.27 -51.2,-6.41 -16.46,-3.91 -31.91,-10.51 -46.43,-19.18 -14.98,-9.11 -27.98,-20.06 -38.93,-32.97 -10.94,-12.9 -20.07,-27.88 -27.91,-45.01 -7.33,-16.93 -12.88,-34.93 -16.88,-54.02 -3.81,-18.88 -5.67,-38.73 -5.67,-59.43 0.01,-21.04 1.87,-41.11 5.67,-60.32 4,-19.2 9.54,-37.72 16.88,-55.63 7.84,-17.89 16.85,-33.5 27.18,-46.96 10.36,-13.32 22.82,-24.52 36.83,-33.19 14.32,-8.68 29.42,-15.3 45.45,-19.73 16.19,-4.23 33.53,-6.41 51.51,-6.41 13.28,0 25.84,1.18 37.96,3.79 12.07,2.62 23.55,6.53 34.51,11.72 10.43,4.68 19.87,10.54 28.32,17.47 8.32,6.83 15.49,14.98 21.55,23.98 6.3,8.89 11.73,19.09 16.27,30.68 4.59,11.71 8.46,24.63 11.73,38.96l-43.83 13.66c-2.56,-10.86 -5.71,-20.19 -9.2,-28.88 -3.38,-8.55 -7.07,-15.93 -11.17,-22.33 -4.23,-5.86 -9.13,-11.29 -15.07,-16.27 -5.97,-4.87 -12.8,-9.56 -20.49,-13.45 -7.29,-3.48 -15.1,-6.18 -23.55,-7.91 -8.34,-1.86 -17.13,-2.71 -26.25,-2.71 -11.41,0 -21.81,0.85 -31.33,2.71 -9.54,1.73 -18.47,4.66 -26.7,8.57 -7.8,4.01 -14.95,8.67 -21.47,13.77 -6.52,5.1 -12.38,10.73 -17.39,17.24 -4.53,6.29 -8.97,12.8 -13,19.75 -4.11,6.93 -7.57,14.53 -10.17,22.34 -4.58,13.43 -8.15,27.33 -10.74,41.64 -2.26,14.22 -3.77,28.87 -3.77,44.05 0,18.97 1.51,36.45 4.19,52.16 2.71,15.95 7.07,30.27 12.92,42.84 5.63,12.8 12.34,23.87 20.57,33.19 8.04,9.64 17.81,17.45 28.69,23.86 10.36,6.42 21.43,11.07 33.15,14.11 11.53,2.94 23.12,4.46 35.04,4.46 10.53,-0.01 20.85,-1.2 31.13,-3.69 10.21,-2.28 20.3,-5.74 30.24,-10.09 10.56,-4.66 19.41,-9.76 27.05,-14.86 7.45,-5.09 13.86,-10.3 18.83,-15.41l0 -79.07 -107.24 0 0 -49.99z"/>
    <path class="fil3" d="M10447.53 124.72l40.99 0 0 46.96c4.99,-10.94 9.89,-20.15 14.31,-27.21 4.55,-7.28 9.1,-12.58 13.62,-16.15 4.62,-3.59 9.29,-6.3 14.07,-8.02 4.85,-1.63 9.85,-2.73 15.35,-2.73 7.31,0 14.88,1.63 22.56,4.46 7.61,3.02 15.41,7.37 23.13,12.78l-14.98 48.28c-5.85,-3.69 -11.72,-6.41 -17.12,-8.36 -5.47,-1.95 -10.87,-3.02 -16.3,-3.02 -4.55,-0.02 -9.13,0.86 -13.66,2.81 -4.55,1.63 -8.66,4.12 -12.27,7.37 -4.12,3.47 -7.69,7.61 -10.71,12.48 -2.83,4.78 -4.97,10.19 -6.34,16.05 -2.9,9.43 -4.77,19.2 -5.81,29.39 -1.2,10.2 -1.86,20.82 -1.86,31.89l0 160.96 -44.99 0 0 -307.92z"/>
    <path class="fil3" d="M10653.18 330.48c3.44,14.53 8.96,26.89 16.14,36.88 7.8,9.88 16.38,17.25 25.68,22.24 9.33,4.88 19.76,7.48 31.05,7.48 10.83,0 21.03,-2.6 30.35,-7.48 9.32,-4.99 17.66,-12.36 24.97,-22.24 7.57,-9.99 13.42,-22.35 16.88,-37.32 3.72,-15.29 5.66,-32.74 5.66,-52.91 0,-19.1 -1.94,-35.8 -5.66,-50.11 -3.45,-14.33 -9.32,-26.48 -16.88,-36.24 -7.3,-9.97 -15.65,-17.24 -24.97,-22.35 -9.31,-4.75 -19.52,-7.37 -30.35,-7.37 -11.3,0 -21.73,2.39 -31.05,7.16 -9.31,4.56 -17.88,11.95 -25.68,22.03 -7.19,9.87 -12.7,22.12 -16.15,36.77 -3.72,14.63 -5.66,31.88 -5.66,51.63 0,19.84 1.94,37.09 5.67,51.84zm-41.89 -126.46c6.91,-21.05 17.12,-38.39 30.93,-51.86 11.14,-11.5 23.95,-20.15 38.04,-25.91 14.09,-5.63 29.3,-8.68 45.79,-8.68 18.2,0 34.67,3.57 49.41,10.42 14.8,7.05 28.34,17.46 39.94,31.35 11.81,13.88 20.62,30.36 26.25,49.46 5.75,19.31 8.45,41.22 8.45,65.71 0,19.86 -1.28,37.53 -3.92,52.93 -2.79,15.62 -6.68,28.96 -11.68,40.47 -5.01,11.6 -11.18,21.57 -18.67,30.24 -7.6,8.9 -16.39,16.29 -26.25,22.79 -9.54,6.28 -19.82,10.74 -30.49,13.45 -10.6,2.8 -21.78,4.23 -33.04,4.23 -18.7,0 -35.59,-3.26 -50.57,-9.68 -14.98,-6.71 -28.21,-16.9 -39.48,-30.79 -11.49,-13.88 -20.17,-30.58 -26,-50.42 -5.97,-19.85 -8.81,-42.83 -8.81,-69.09 0,-28.43 3.37,-53.25 10.09,-74.62z"/>
    <path class="fil3" d="M10870.06 124.72l46.43 0 42.93 177.78 15.87 66.59c0,-1.97 1.07,-8.24 3.36,-18.65 2.03,-10.52 5.28,-25.59 9.43,-45.02l42.93 -180.69 45.77 0 40.37 178.97 12.76 58.89 15.84 -59.43 45.01 -178.43 43.72 0 -82.44 307.92 -47.28 0 -42.19 -184.17 -10.4 -52.38 -53.92 236.55 -47.05 0 -81.16 -307.92z"/>
    <path class="fil3" d="M11376.49 432.64c-6.41,0.86 -12.27,1.52 -17.9,2.18 -5.32,0.52 -10.63,0.75 -15.65,0.75 -8.22,0 -15.37,-0.43 -21.77,-1.63 -6.29,-1.31 -12.07,-3.25 -17.04,-6.08 -4.12,-3.14 -7.8,-6.5 -11.06,-10.2 -3.02,-3.9 -5.62,-8.32 -7.37,-13.54 -1.83,-4.66 -3.26,-12.27 -4.17,-22.66 -0.92,-10.2 -1.28,-23 -1.28,-38.4l0 -177.98 -33.48 0 0 -40.35 33.48 0 0 -76.01 44.38 -31.58 0 107.59 45.01 0 0 40.35 -45.01 0 0 180.8c0,7.58 0.11,13.66 0.72,18.43 0.24,4.78 1.01,8.25 1.98,10.2 0.86,1.96 1.95,3.91 3.03,5.63 1.08,1.75 2.64,3.26 4.35,4.34 2.37,1.2 4.74,2.18 7.15,2.83 2.6,0.55 5.42,0.86 8.69,0.86 2.18,0 5,-0.22 8.03,-0.54 3.26,-0.53 6.91,-0.97 11.05,-1.32l6.85 46.33z"/>
    <path class="fil3" d="M11412.57 7.69l45 0 0 152.71c10.43,-14.2 22.38,-24.93 35.93,-32.09 13.34,-7.06 27.98,-10.75 43.9,-10.75 10.14,0 19.45,1.31 27.67,3.69 8.47,2.27 16.27,5.74 23.63,10.08 7.3,4.35 13.47,9.76 18.44,16.05 4.89,6.3 9.12,13.45 12.27,21.38 3.57,7.47 6.2,17.25 7.91,28.85 1.56,11.6 2.37,25.06 2.37,40.13l0 194.9 -45.1 0 0 -194.91c0,-13.1 -1.29,-24.39 -3.69,-33.94 -2.59,-9.44 -6.28,-17.25 -11.29,-23.22 -4.66,-5.85 -10.48,-10.4 -17.55,-13.22 -6.87,-3.04 -14.75,-4.55 -23.4,-4.55 -6.94,0 -13.46,1.08 -19.53,3.02 -6.12,1.95 -12.41,4.9 -18.7,8.9 -5.94,3.91 -11.02,8.68 -14.94,14.22 -4.11,5.53 -7.49,11.6 -9.78,18.32 -2.6,6.85 -4.67,14.98 -6.06,24.53 -1.28,9.53 -2.09,20.36 -2.09,32.74l0.01 168.11 -45 0 0 -424.95z"/>
   </g>
  </g>
 </g>
</svg>
